<?xml version="1.0" encoding="UTF-8" standalone="no"?>
<!DOCTYPE svg PUBLIC "-//W3C//DTD SVG 1.1//EN"
 "http://www.w3.org/Graphics/SVG/1.1/DTD/svg11.dtd">
<!-- Generated by graphviz version 2.36.0 (20140111.2315)
 -->
<!-- Title: g Pages: 1 -->
<svg width="781pt" height="206pt"
 viewBox="0.00 0.00 781.00 206.00" xmlns="http://www.w3.org/2000/svg" xmlns:xlink="http://www.w3.org/1999/xlink">
<g id="graph0" class="graph" transform="scale(1 1) rotate(0) translate(4 202)">
<title>g</title>
<polygon fill="white" stroke="none" points="-4,4 -4,-202 777,-202 777,4 -4,4"/>
<!-- GENE -->
<g id="node1" class="node"><title>GENE</title>
<polygon fill="none" stroke="black" points="352,-124 298,-124 298,-88 352,-88 352,-124"/>
<text text-anchor="middle" x="325" y="-102.3" font-family="Times,serif" font-size="14.00">GENE</text>
</g>
<!-- IS CALLED -->
<g id="node5" class="node"><title>IS CALLED</title>
<polygon fill="none" stroke="black" points="142,-36 62.9287,-18 142,-3.55271e-15 221.071,-18 142,-36"/>
<text text-anchor="middle" x="142" y="-14.3" font-family="Times,serif" font-size="14.00">IS CALLED</text>
</g>
<!-- GENE&#45;&#45;IS CALLED -->
<g id="edge16" class="edge"><title>GENE&#45;&#45;IS CALLED</title>
<path fill="none" stroke="black" d="M297.998,-92.3104C262.504,-75.6302 200.664,-46.569 166.475,-30.5021"/>
</g>
<!-- ENCODING -->
<g id="node6" class="node"><title>ENCODING</title>
<polygon fill="none" stroke="black" points="325,-36 245.55,-18 325,-3.55271e-15 404.45,-18 325,-36"/>
<text text-anchor="middle" x="325" y="-14.3" font-family="Times,serif" font-size="14.00">ENCODING</text>
</g>
<!-- GENE&#45;&#45;ENCODING -->
<g id="edge1" class="edge"><title>GENE&#45;&#45;ENCODING</title>
<path fill="none" stroke="black" d="M325,-87.5966C325,-72.5778 325,-51.009 325,-36.084"/>
<text text-anchor="middle" x="330.5" y="-58.3" font-family="Times,serif" font-size="14.00"> 1</text>
</g>
<!-- REGULATION -->
<g id="node7" class="node"><title>REGULATION</title>
<polygon fill="none" stroke="black" points="519,-36 423.612,-18 519,-3.55271e-15 614.388,-18 519,-36"/>
<text text-anchor="middle" x="519" y="-14.3" font-family="Times,serif" font-size="14.00">REGULATION</text>
</g>
<!-- GENE&#45;&#45;REGULATION -->
<g id="edge12" class="edge"><title>GENE&#45;&#45;REGULATION</title>
<path fill="none" stroke="black" d="M341.32,-87.547C352.605,-76.4426 368.508,-62.5857 385,-54 411.019,-40.4544 442.672,-31.8705 468.679,-26.5956"/>
</g>
<!-- BINDING SITE -->
<g id="node2" class="node"><title>BINDING SITE</title>
<polygon fill="none" stroke="black" points="709.5,-124 604.5,-124 604.5,-88 709.5,-88 709.5,-124"/>
<text text-anchor="middle" x="657" y="-102.3" font-family="Times,serif" font-size="14.00">BINDING SITE</text>
</g>
<!-- BINDING SITE&#45;&#45;REGULATION -->
<g id="edge14" class="edge"><title>BINDING SITE&#45;&#45;REGULATION</title>
<path fill="none" stroke="black" d="M629.405,-87.8033C603.134,-71.4314 564.155,-47.1403 540.228,-32.2292"/>
</g>
<!-- GENE NAME -->
<g id="node3" class="node"><title>GENE NAME</title>
<polygon fill="none" stroke="black" points="169.25,-124 72.75,-124 72.75,-88 169.25,-88 169.25,-124"/>
<text text-anchor="middle" x="121" y="-102.3" font-family="Times,serif" font-size="14.00">GENE NAME</text>
</g>
<!-- GENE NAME&#45;&#45;IS CALLED -->
<g id="edge15" class="edge"><title>GENE NAME&#45;&#45;IS CALLED</title>
<path fill="none" stroke="black" d="M125.25,-87.5966C128.989,-72.2834 134.391,-50.1606 138.041,-35.2138"/>
</g>
<!-- TRANSCRIPTION FACTOR -->
<g id="node4" class="node"><title>TRANSCRIPTION FACTOR</title>
<polygon fill="none" stroke="black" points="568,-124 388,-124 388,-88 568,-88 568,-124"/>
<text text-anchor="middle" x="478" y="-102.3" font-family="Times,serif" font-size="14.00">TRANSCRIPTION FACTOR</text>
</g>
<!-- TRANSCRIPTION FACTOR&#45;&#45;ENCODING -->
<g id="edge2" class="edge"><title>TRANSCRIPTION FACTOR&#45;&#45;ENCODING</title>
<path fill="none" stroke="black" d="M447.406,-87.8033C417.582,-71.0393 372.985,-45.9721 346.659,-31.1741"/>
<text text-anchor="middle" x="420.5" y="-58.3" font-family="Times,serif" font-size="14.00"> 1</text>
</g>
<!-- TRANSCRIPTION FACTOR&#45;&#45;REGULATION -->
<g id="edge13" class="edge"><title>TRANSCRIPTION FACTOR&#45;&#45;REGULATION</title>
<path fill="none" stroke="black" d="M486.297,-87.5966C493.691,-72.087 504.415,-49.5922 511.543,-34.6425"/>
</g>
<!-- gene_id -->
<g id="node8" class="node"><title>gene_id</title>
<ellipse fill="none" stroke="black" cx="334" cy="-180" rx="61.1419" ry="18"/>
<text text-anchor="middle" x="334" y="-176.3" font-family="Times,serif" font-size="14.00">&lt;&lt;u&gt;id&lt;/u&gt;&gt;</text>
</g>
<!-- gene_id&#45;&#45;GENE -->
<g id="edge3" class="edge"><title>gene_id&#45;&#45;GENE</title>
<path fill="none" stroke="black" d="M331.867,-161.937C330.453,-150.626 328.604,-135.828 327.18,-124.441"/>
</g>
<!-- gene_sequence -->
<g id="node9" class="node"><title>gene_sequence</title>
<ellipse fill="none" stroke="black" cx="212" cy="-180" rx="42.3456" ry="18"/>
<text text-anchor="middle" x="212" y="-176.3" font-family="Times,serif" font-size="14.00">sequence</text>
</g>
<!-- gene_sequence&#45;&#45;GENE -->
<g id="edge4" class="edge"><title>gene_sequence&#45;&#45;GENE</title>
<path fill="none" stroke="black" d="M234.596,-164.603C252.887,-152.948 278.702,-136.5 298.066,-124.161"/>
</g>
<!-- gene_name -->
<g id="node10" class="node"><title>gene_name</title>
<ellipse fill="none" stroke="black" cx="121" cy="-180" rx="30.3206" ry="18"/>
<text text-anchor="middle" x="121" y="-176.3" font-family="Times,serif" font-size="14.00">name</text>
</g>
<!-- gene_name&#45;&#45;GENE NAME -->
<g id="edge5" class="edge"><title>gene_name&#45;&#45;GENE NAME</title>
<path fill="none" stroke="black" d="M121,-161.937C121,-150.626 121,-135.828 121,-124.441"/>
</g>
<!-- gene_name_id -->
<g id="node11" class="node"><title>gene_name_id</title>
<ellipse fill="none" stroke="black" cx="36" cy="-180" rx="36.096" ry="18"/>
<text text-anchor="middle" x="36" y="-176.3" font-family="Times,serif" font-size="14.00">gene id</text>
</g>
<!-- gene_name_id&#45;&#45;GENE NAME -->
<g id="edge6" class="edge"><title>gene_name_id&#45;&#45;GENE NAME</title>
<path fill="none" stroke="black" d="M53.6121,-164.082C67.3249,-152.466 86.375,-136.329 100.723,-124.176"/>
</g>
<!-- binding_id -->
<g id="node12" class="node"><title>binding_id</title>
<ellipse fill="none" stroke="black" cx="592" cy="-180" rx="27" ry="18"/>
<text text-anchor="middle" x="592" y="-176.3" font-family="Times,serif" font-size="14.00">id</text>
</g>
<!-- binding_id&#45;&#45;BINDING SITE -->
<g id="edge9" class="edge"><title>binding_id&#45;&#45;BINDING SITE</title>
<path fill="none" stroke="black" d="M605.468,-164.082C615.954,-152.466 630.522,-136.329 641.494,-124.176"/>
</g>
<!-- start -->
<g id="node13" class="node"><title>start</title>
<ellipse fill="none" stroke="black" cx="664" cy="-180" rx="27" ry="18"/>
<text text-anchor="middle" x="664" y="-176.3" font-family="Times,serif" font-size="14.00">start</text>
</g>
<!-- start&#45;&#45;BINDING SITE -->
<g id="edge7" class="edge"><title>start&#45;&#45;BINDING SITE</title>
<path fill="none" stroke="black" d="M662.341,-161.937C661.241,-150.626 659.803,-135.828 658.696,-124.441"/>
</g>
<!-- length -->
<g id="node14" class="node"><title>length</title>
<ellipse fill="none" stroke="black" cx="741" cy="-180" rx="32.2457" ry="18"/>
<text text-anchor="middle" x="741" y="-176.3" font-family="Times,serif" font-size="14.00">length</text>
</g>
<!-- length&#45;&#45;BINDING SITE -->
<g id="edge8" class="edge"><title>length&#45;&#45;BINDING SITE</title>
<path fill="none" stroke="black" d="M724.001,-164.43C710.387,-152.76 691.261,-136.366 676.927,-124.08"/>
</g>
<!-- transcription_id -->
<g id="node15" class="node"><title>transcription_id</title>
<ellipse fill="none" stroke="black" cx="520" cy="-180" rx="27" ry="18"/>
<text text-anchor="middle" x="520" y="-176.3" font-family="Times,serif" font-size="14.00">id</text>
</g>
<!-- transcription_id&#45;&#45;TRANSCRIPTION FACTOR -->
<g id="edge10" class="edge"><title>transcription_id&#45;&#45;TRANSCRIPTION FACTOR</title>
<path fill="none" stroke="black" d="M510.679,-163.021C503.96,-151.504 494.904,-135.978 488.028,-124.191"/>
</g>
<!-- transcription_name -->
<g id="node16" class="node"><title>transcription_name</title>
<ellipse fill="none" stroke="black" cx="444" cy="-180" rx="30.3206" ry="18"/>
<text text-anchor="middle" x="444" y="-176.3" font-family="Times,serif" font-size="14.00">name</text>
</g>
<!-- transcription_name&#45;&#45;TRANSCRIPTION FACTOR -->
<g id="edge11" class="edge"><title>transcription_name&#45;&#45;TRANSCRIPTION FACTOR</title>
<path fill="none" stroke="black" d="M451.886,-162.301C457.3,-150.835 464.466,-135.661 469.921,-124.109"/>
</g>
</g>
</svg>
