<?xml version="1.0" encoding="UTF-8" standalone="no"?>
<!DOCTYPE svg PUBLIC "-//W3C//DTD SVG 1.1//EN"
 "http://www.w3.org/Graphics/SVG/1.1/DTD/svg11.dtd">
<!-- Generated by graphviz version 2.36.0 (20140111.2315)
 -->
<!-- Title: g Pages: 1 -->
<svg width="494pt" height="544pt"
 viewBox="0.00 0.00 494.00 544.00" xmlns="http://www.w3.org/2000/svg" xmlns:xlink="http://www.w3.org/1999/xlink">
<g id="graph0" class="graph" transform="scale(1 1) rotate(0) translate(4 540)">
<title>g</title>
<polygon fill="white" stroke="none" points="-4,4 -4,-540 490,-540 490,4 -4,4"/>
<!-- NAME -->
<g id="node1" class="node"><title>NAME</title>
<polygon fill="none" stroke="black" points="180.25,-286 123.75,-286 123.75,-250 180.25,-250 180.25,-286"/>
<text text-anchor="middle" x="152" y="-264.3" font-family="Times,serif" font-size="14.00">NAME</text>
</g>
<!-- BINDING -->
<g id="node2" class="node"><title>BINDING</title>
<polygon fill="none" stroke="black" points="403,-286 329,-286 329,-250 403,-250 403,-286"/>
<text text-anchor="middle" x="366" y="-264.3" font-family="Times,serif" font-size="14.00">BINDING</text>
</g>
<!-- TRANSCRIBES -->
<g id="node7" class="node"><title>TRANSCRIBES</title>
<polygon fill="none" stroke="black" points="225,-198 126.096,-180 225,-162 323.904,-180 225,-198"/>
<text text-anchor="middle" x="225" y="-176.3" font-family="Times,serif" font-size="14.00">TRANSCRIBES</text>
</g>
<!-- BINDING&#45;&#45;TRANSCRIBES -->
<g id="edge4" class="edge"><title>BINDING&#45;&#45;TRANSCRIBES</title>
<path fill="none" stroke="black" d="M337.805,-249.803C310.963,-233.431 271.137,-209.14 246.69,-194.229"/>
<text text-anchor="middle" x="311.5" y="-220.3" font-family="Times,serif" font-size="14.00">1</text>
</g>
<!-- binding_sequence -->
<g id="node10" class="node"><title>binding_sequence</title>
<ellipse fill="none" stroke="black" cx="414" cy="-180" rx="72.2155" ry="18"/>
<text text-anchor="start" x="366.5" y="-177.3" font-family="Times,serif" text-decoration="underline" font-size="14.00">binding sequence</text>
</g>
<!-- BINDING&#45;&#45;binding_sequence -->
<g id="edge7" class="edge"><title>BINDING&#45;&#45;binding_sequence</title>
<path fill="none" stroke="black" d="M375.714,-249.597C384.096,-234.578 396.135,-213.009 404.465,-198.084"/>
</g>
<!-- TRANSCRIPTION FACTOR -->
<g id="node3" class="node"><title>TRANSCRIPTION FACTOR</title>
<polygon fill="none" stroke="black" points="315,-110 135,-110 135,-74 315,-74 315,-110"/>
<text text-anchor="middle" x="225" y="-88.3" font-family="Times,serif" font-size="14.00">TRANSCRIPTION FACTOR</text>
</g>
<!-- transcription_name -->
<g id="node8" class="node"><title>transcription_name</title>
<ellipse fill="none" stroke="black" cx="225" cy="-18" rx="30.3206" ry="18"/>
<text text-anchor="start" x="209.5" y="-15.3" font-family="Times,serif" text-decoration="underline" font-size="14.00">name</text>
</g>
<!-- TRANSCRIPTION FACTOR&#45;&#45;transcription_name -->
<g id="edge1" class="edge"><title>TRANSCRIPTION FACTOR&#45;&#45;transcription_name</title>
<path fill="none" stroke="black" d="M225,-73.937C225,-62.626 225,-47.8282 225,-36.4407"/>
</g>
<!-- GENE -->
<g id="node4" class="node"><title>GENE</title>
<polygon fill="none" stroke="black" points="281,-462 227,-462 227,-426 281,-426 281,-462"/>
<text text-anchor="middle" x="254" y="-440.3" font-family="Times,serif" font-size="14.00">GENE</text>
</g>
<!-- IS CALLED -->
<g id="node5" class="node"><title>IS CALLED</title>
<polygon fill="none" stroke="black" points="79,-374 -0.0713006,-356 79,-338 158.071,-356 79,-374"/>
<text text-anchor="middle" x="79" y="-352.3" font-family="Times,serif" font-size="14.00">IS CALLED</text>
</g>
<!-- GENE&#45;&#45;IS CALLED -->
<g id="edge9" class="edge"><title>GENE&#45;&#45;IS CALLED</title>
<path fill="none" stroke="black" d="M226.656,-429.562C192.626,-412.839 135.067,-384.553 102.783,-368.688"/>
<text text-anchor="middle" x="186.5" y="-396.3" font-family="Times,serif" font-size="14.00">1</text>
</g>
<!-- IS BOUND -->
<g id="node6" class="node"><title>IS BOUND</title>
<polygon fill="none" stroke="black" points="366,-374 292.701,-356 366,-338 439.299,-356 366,-374"/>
<text text-anchor="middle" x="366" y="-352.3" font-family="Times,serif" font-size="14.00">IS BOUND</text>
</g>
<!-- GENE&#45;&#45;IS BOUND -->
<g id="edge2" class="edge"><title>GENE&#45;&#45;IS BOUND</title>
<path fill="none" stroke="black" d="M276.396,-425.803C297.845,-409.333 329.731,-384.849 349.119,-369.962"/>
<text text-anchor="middle" x="323.5" y="-396.3" font-family="Times,serif" font-size="14.00">1</text>
</g>
<!-- IS CALLED&#45;&#45;NAME -->
<g id="edge10" class="edge"><title>IS CALLED&#45;&#45;NAME</title>
<path fill="none" stroke="black" d="M91.3835,-340.411C104.156,-325.364 124.061,-301.914 137.546,-286.028"/>
<text text-anchor="middle" x="134" y="-308.3" font-family="Times,serif" font-size="14.00">1..n</text>
</g>
<!-- IS BOUND&#45;&#45;BINDING -->
<g id="edge3" class="edge"><title>IS BOUND&#45;&#45;BINDING</title>
<path fill="none" stroke="black" d="M366,-337.597C366,-322.578 366,-301.009 366,-286.084"/>
<text text-anchor="middle" x="377" y="-308.3" font-family="Times,serif" font-size="14.00">1..n</text>
</g>
<!-- TRANSCRIBES&#45;&#45;TRANSCRIPTION FACTOR -->
<g id="edge5" class="edge"><title>TRANSCRIBES&#45;&#45;TRANSCRIPTION FACTOR</title>
<path fill="none" stroke="black" d="M225,-161.597C225,-146.578 225,-125.009 225,-110.084"/>
<text text-anchor="middle" x="236" y="-132.3" font-family="Times,serif" font-size="14.00">1..n</text>
</g>
<!-- gene_sequence -->
<g id="node9" class="node"><title>gene_sequence</title>
<ellipse fill="none" stroke="black" cx="254" cy="-518" rx="42.3456" ry="18"/>
<text text-anchor="start" x="229" y="-515.3" font-family="Times,serif" text-decoration="underline" font-size="14.00">sequence</text>
</g>
<!-- gene_sequence&#45;&#45;GENE -->
<g id="edge6" class="edge"><title>gene_sequence&#45;&#45;GENE</title>
<path fill="none" stroke="black" d="M254,-499.937C254,-488.626 254,-473.828 254,-462.441"/>
</g>
<!-- gene_name -->
<g id="node11" class="node"><title>gene_name</title>
<ellipse fill="none" stroke="black" cx="225" cy="-356" rx="49.0941" ry="18"/>
<text text-anchor="start" x="195" y="-353.3" font-family="Times,serif" text-decoration="underline" font-size="14.00">gene name</text>
</g>
<!-- gene_name&#45;&#45;NAME -->
<g id="edge8" class="edge"><title>gene_name&#45;&#45;NAME</title>
<path fill="none" stroke="black" d="M210.925,-338.418C198.164,-323.385 179.432,-301.318 166.532,-286.119"/>
</g>
</g>
</svg>
