<?xml version="1.0" encoding="UTF-8" standalone="no"?>
<!DOCTYPE svg PUBLIC "-//W3C//DTD SVG 1.1//EN"
 "http://www.w3.org/Graphics/SVG/1.1/DTD/svg11.dtd">
<!-- Generated by graphviz version 2.38.0 (20140413.2041)
 -->
<!-- Title: g Pages: 1 -->
<svg width="751pt" height="277pt"
 viewBox="0.00 0.00 751.44 277.00" xmlns="http://www.w3.org/2000/svg" xmlns:xlink="http://www.w3.org/1999/xlink">
<g id="graph0" class="graph" transform="scale(1 1) rotate(0) translate(4 273)">
<title>g</title>
<polygon fill="white" stroke="none" points="-4,4 -4,-273 747.442,-273 747.442,4 -4,4"/>
<!-- GENE -->
<g id="node1" class="node"><title>GENE</title>
<polygon fill="none" stroke="black" points="343.646,-196 289.646,-196 289.646,-160 343.646,-160 343.646,-196"/>
<text text-anchor="middle" x="316.646" y="-174.3" font-family="Times,serif" font-size="14.00">GENE</text>
</g>
<!-- IS CALLED -->
<g id="node5" class="node"><title>IS CALLED</title>
<polygon fill="none" stroke="black" points="133.646,-109 54.5514,-91 133.646,-73 212.742,-91 133.646,-109"/>
<text text-anchor="middle" x="133.646" y="-87.3" font-family="Times,serif" font-size="14.00">IS CALLED</text>
</g>
<!-- GENE&#45;&#45;IS CALLED -->
<g id="edge23" class="edge"><title>GENE&#45;&#45;IS CALLED</title>
<path fill="none" stroke="black" d="M289.644,-164.458C254.25,-148.018 192.657,-119.409 158.41,-103.502"/>
</g>
<!-- ENCODING -->
<g id="node6" class="node"><title>ENCODING</title>
<polygon fill="none" stroke="black" points="328.646,-109 248.713,-91 328.646,-73 408.58,-91 328.646,-109"/>
<text text-anchor="middle" x="328.646" y="-87.3" font-family="Times,serif" font-size="14.00">ENCODING</text>
</g>
<!-- GENE&#45;&#45;ENCODING -->
<g id="edge1" class="edge"><title>GENE&#45;&#45;ENCODING</title>
<path fill="none" stroke="black" d="M319.075,-159.799C321.184,-144.858 324.219,-123.358 326.303,-108.597"/>
<text text-anchor="middle" x="329.146" y="-130.8" font-family="Times,serif" font-size="14.00"> 1</text>
</g>
<!-- REGULATION -->
<g id="node7" class="node"><title>REGULATION</title>
<polygon fill="none" stroke="black" points="548.646,-109 452.962,-91 548.646,-73 644.331,-91 548.646,-109"/>
<text text-anchor="middle" x="548.646" y="-87.3" font-family="Times,serif" font-size="14.00">REGULATION</text>
</g>
<!-- GENE&#45;&#45;REGULATION -->
<g id="edge19" class="edge"><title>GENE&#45;&#45;REGULATION</title>
<path fill="none" stroke="black" d="M334.876,-159.948C347.617,-148.943 365.532,-135.2 383.646,-127 417.26,-111.784 457.756,-103.068 490.217,-98.1391"/>
</g>
<!-- BINDING SITE -->
<g id="node2" class="node"><title>BINDING SITE</title>
<polygon fill="none" stroke="black" points="665.646,-196 559.646,-196 559.646,-160 665.646,-160 665.646,-196"/>
<text text-anchor="middle" x="612.646" y="-174.3" font-family="Times,serif" font-size="14.00">BINDING SITE</text>
</g>
<!-- BINDING SITE&#45;&#45;REGULATION -->
<g id="edge21" class="edge"><title>BINDING SITE&#45;&#45;REGULATION</title>
<path fill="none" stroke="black" d="M599.695,-159.799C588.007,-144.276 570.988,-121.673 559.868,-106.903"/>
</g>
<!-- GENE NAME -->
<g id="node3" class="node"><title>GENE NAME</title>
<polygon fill="none" stroke="black" points="182.146,-196 85.1465,-196 85.1465,-160 182.146,-160 182.146,-196"/>
<text text-anchor="middle" x="133.646" y="-174.3" font-family="Times,serif" font-size="14.00">GENE NAME</text>
</g>
<!-- GENE NAME&#45;&#45;IS CALLED -->
<g id="edge22" class="edge"><title>GENE NAME&#45;&#45;IS CALLED</title>
<path fill="none" stroke="black" d="M133.646,-159.799C133.646,-145.052 133.646,-123.915 133.646,-109.175"/>
</g>
<!-- TRANSCRIPTION FACTOR -->
<g id="node4" class="node"><title>TRANSCRIPTION FACTOR</title>
<polygon fill="none" stroke="black" points="541.646,-196 361.646,-196 361.646,-160 541.646,-160 541.646,-196"/>
<text text-anchor="middle" x="451.646" y="-174.3" font-family="Times,serif" font-size="14.00">TRANSCRIPTION FACTOR</text>
</g>
<!-- TRANSCRIPTION FACTOR&#45;&#45;ENCODING -->
<g id="edge2" class="edge"><title>TRANSCRIPTION FACTOR&#45;&#45;ENCODING</title>
<path fill="none" stroke="black" d="M426.756,-159.799C403.31,-143.597 368.703,-119.681 347.474,-105.011"/>
<text text-anchor="middle" x="402.146" y="-130.8" font-family="Times,serif" font-size="14.00"> 1</text>
</g>
<!-- TRANSCRIPTION FACTOR&#45;&#45;REGULATION -->
<g id="edge20" class="edge"><title>TRANSCRIPTION FACTOR&#45;&#45;REGULATION</title>
<path fill="none" stroke="black" d="M471.276,-159.799C489.323,-143.985 515.755,-120.822 532.578,-106.081"/>
</g>
<!-- gene_id_called -->
<g id="node17" class="node"><title>gene_id_called</title>
<ellipse fill="none" stroke="black" cx="133.646" cy="-18" rx="36.2938" ry="18"/>
<text text-anchor="start" x="113.646" y="-15.3" font-family="Times,serif" text-decoration="underline" font-size="14.00">gene id</text>
</g>
<!-- IS CALLED&#45;&#45;gene_id_called -->
<g id="edge12" class="edge"><title>IS CALLED&#45;&#45;gene_id_called</title>
<path fill="none" stroke="black" d="M133.646,-72.8129C133.646,-61.6499 133.646,-47.1602 133.646,-36.0288"/>
</g>
<!-- gene_name_id_called -->
<g id="node18" class="node"><title>gene_name_id_called</title>
<ellipse fill="none" stroke="black" cx="39.6465" cy="-18" rx="39.7935" ry="18"/>
<text text-anchor="start" x="17.1465" y="-15.3" font-family="Times,serif" text-decoration="underline" font-size="14.00">name id</text>
</g>
<!-- IS CALLED&#45;&#45;gene_name_id_called -->
<g id="edge13" class="edge"><title>IS CALLED&#45;&#45;gene_name_id_called</title>
<path fill="none" stroke="black" d="M115.966,-76.6454C99.7983,-64.4338 75.9242,-46.4012 59.1947,-33.7651"/>
</g>
<!-- encoding_trans_id -->
<g id="node20" class="node"><title>encoding_trans_id</title>
<ellipse fill="none" stroke="black" cx="343.646" cy="-18" rx="64.189" ry="18"/>
<text text-anchor="start" x="302.146" y="-15.3" font-family="Times,serif" text-decoration="underline" font-size="14.00">transcription id</text>
</g>
<!-- ENCODING&#45;&#45;encoding_trans_id -->
<g id="edge15" class="edge"><title>ENCODING&#45;&#45;encoding_trans_id</title>
<path fill="none" stroke="black" d="M332.125,-73.5327C334.48,-62.3902 337.584,-47.696 339.977,-36.3686"/>
</g>
<!-- regulation_gene_id -->
<g id="node22" class="node"><title>regulation_gene_id</title>
<ellipse fill="none" stroke="black" cx="462.646" cy="-18" rx="36.2938" ry="18"/>
<text text-anchor="start" x="442.646" y="-15.3" font-family="Times,serif" text-decoration="underline" font-size="14.00">gene id</text>
</g>
<!-- REGULATION&#45;&#45;regulation_gene_id -->
<g id="edge17" class="edge"><title>REGULATION&#45;&#45;regulation_gene_id</title>
<path fill="none" stroke="black" d="M531.656,-75.9727C516.872,-63.7679 495.519,-46.1393 480.49,-33.7314"/>
</g>
<!-- regulation_trans_id -->
<g id="node23" class="node"><title>regulation_trans_id</title>
<ellipse fill="none" stroke="black" cx="574.646" cy="-18" rx="57.3905" ry="18"/>
<text text-anchor="start" x="538.646" y="-15.3" font-family="Times,serif" text-decoration="underline" font-size="14.00">translation id</text>
</g>
<!-- REGULATION&#45;&#45;regulation_trans_id -->
<g id="edge18" class="edge"><title>REGULATION&#45;&#45;regulation_trans_id</title>
<path fill="none" stroke="black" d="M554.546,-73.889C558.681,-62.5967 564.199,-47.5288 568.407,-36.0373"/>
</g>
<!-- gene_id -->
<g id="node8" class="node"><title>gene_id</title>
<ellipse fill="none" stroke="black" cx="316.646" cy="-251" rx="27" ry="18"/>
<text text-anchor="start" x="311.146" y="-248.3" font-family="Times,serif" text-decoration="underline" font-size="14.00">id</text>
</g>
<!-- gene_id&#45;&#45;GENE -->
<g id="edge3" class="edge"><title>gene_id&#45;&#45;GENE</title>
<path fill="none" stroke="black" d="M316.646,-232.813C316.646,-221.65 316.646,-207.16 316.646,-196.029"/>
</g>
<!-- gene_sequence -->
<g id="node9" class="node"><title>gene_sequence</title>
<ellipse fill="none" stroke="black" cx="228.646" cy="-251" rx="42.7926" ry="18"/>
<text text-anchor="middle" x="228.646" y="-247.3" font-family="Times,serif" font-size="14.00">sequence</text>
</g>
<!-- gene_sequence&#45;&#45;GENE -->
<g id="edge4" class="edge"><title>gene_sequence&#45;&#45;GENE</title>
<path fill="none" stroke="black" d="M247.741,-234.594C261.794,-223.256 280.901,-207.84 295.43,-196.118"/>
</g>
<!-- gene_name -->
<g id="node10" class="node"><title>gene_name</title>
<ellipse fill="none" stroke="black" cx="135.646" cy="-251" rx="30.5947" ry="18"/>
<text text-anchor="start" x="120.146" y="-248.3" font-family="Times,serif" text-decoration="underline" font-size="14.00">name</text>
</g>
<!-- gene_name&#45;&#45;GENE NAME -->
<g id="edge5" class="edge"><title>gene_name&#45;&#45;GENE NAME</title>
<path fill="none" stroke="black" d="M135.162,-232.813C134.848,-221.65 134.44,-207.16 134.126,-196.029"/>
</g>
<!-- gene_name_id -->
<g id="node11" class="node"><title>gene_name_id</title>
<ellipse fill="none" stroke="black" cx="59.6465" cy="-251" rx="27" ry="18"/>
<text text-anchor="middle" x="59.6465" y="-247.3" font-family="Times,serif" font-size="14.00">id</text>
</g>
<!-- gene_name_id&#45;&#45;GENE NAME -->
<g id="edge6" class="edge"><title>gene_name_id&#45;&#45;GENE NAME</title>
<path fill="none" stroke="black" d="M74.6215,-235.632C86.531,-224.205 103.227,-208.186 115.825,-196.099"/>
</g>
<!-- binding_id -->
<g id="node12" class="node"><title>binding_id</title>
<ellipse fill="none" stroke="black" cx="540.646" cy="-251" rx="27" ry="18"/>
<text text-anchor="start" x="535.146" y="-248.3" font-family="Times,serif" text-decoration="underline" font-size="14.00">id</text>
</g>
<!-- binding_id&#45;&#45;BINDING SITE -->
<g id="edge9" class="edge"><title>binding_id&#45;&#45;BINDING SITE</title>
<path fill="none" stroke="black" d="M555.217,-235.632C566.804,-224.205 583.049,-208.186 595.306,-196.099"/>
</g>
<!-- start -->
<g id="node13" class="node"><title>start</title>
<ellipse fill="none" stroke="black" cx="612.646" cy="-251" rx="27" ry="18"/>
<text text-anchor="middle" x="612.646" y="-247.3" font-family="Times,serif" font-size="14.00">start</text>
</g>
<!-- start&#45;&#45;BINDING SITE -->
<g id="edge7" class="edge"><title>start&#45;&#45;BINDING SITE</title>
<path fill="none" stroke="black" d="M612.646,-232.813C612.646,-221.65 612.646,-207.16 612.646,-196.029"/>
</g>
<!-- length -->
<g id="node14" class="node"><title>length</title>
<ellipse fill="none" stroke="black" cx="689.646" cy="-251" rx="32.4942" ry="18"/>
<text text-anchor="middle" x="689.646" y="-247.3" font-family="Times,serif" font-size="14.00">length</text>
</g>
<!-- length&#45;&#45;BINDING SITE -->
<g id="edge8" class="edge"><title>length&#45;&#45;BINDING SITE</title>
<path fill="none" stroke="black" d="M673.692,-235.289C661.358,-223.916 644.257,-208.148 631.292,-196.193"/>
</g>
<!-- transcription_id -->
<g id="node15" class="node"><title>transcription_id</title>
<ellipse fill="none" stroke="black" cx="468.646" cy="-251" rx="27" ry="18"/>
<text text-anchor="start" x="463.146" y="-248.3" font-family="Times,serif" text-decoration="underline" font-size="14.00">id</text>
</g>
<!-- transcription_id&#45;&#45;TRANSCRIPTION FACTOR -->
<g id="edge10" class="edge"><title>transcription_id&#45;&#45;TRANSCRIPTION FACTOR</title>
<path fill="none" stroke="black" d="M464.618,-233.174C461.947,-222.02 458.453,-207.428 455.764,-196.198"/>
</g>
<!-- transcription_name -->
<g id="node16" class="node"><title>transcription_name</title>
<ellipse fill="none" stroke="black" cx="392.646" cy="-251" rx="30.5947" ry="18"/>
<text text-anchor="middle" x="392.646" y="-247.3" font-family="Times,serif" font-size="14.00">name</text>
</g>
<!-- transcription_name&#45;&#45;TRANSCRIPTION FACTOR -->
<g id="edge11" class="edge"><title>transcription_name&#45;&#45;TRANSCRIPTION FACTOR</title>
<path fill="none" stroke="black" d="M405.449,-234.594C414.87,-223.256 427.681,-207.84 437.422,-196.118"/>
</g>
<!-- encoding_gene_id -->
<g id="node19" class="node"><title>encoding_gene_id</title>
<ellipse fill="none" stroke="black" cx="224.646" cy="-18" rx="36.2938" ry="18"/>
<text text-anchor="start" x="204.646" y="-15.3" font-family="Times,serif" text-decoration="underline" font-size="14.00">gene id</text>
</g>
<!-- encoding_gene_id&#45;&#45;ENCODING -->
<g id="edge14" class="edge"><title>encoding_gene_id&#45;&#45;ENCODING</title>
<path fill="none" stroke="black" d="M245.384,-33.1574C264.094,-45.9308 291.393,-64.5672 309.571,-76.9775"/>
</g>
<!-- regulation_binding_id -->
<g id="node21" class="node"><title>regulation_binding_id</title>
<ellipse fill="none" stroke="black" cx="696.646" cy="-18" rx="46.5926" ry="18"/>
<text text-anchor="start" x="668.646" y="-15.3" font-family="Times,serif" text-decoration="underline" font-size="14.00">binding id</text>
</g>
<!-- regulation_binding_id&#45;&#45;REGULATION -->
<g id="edge16" class="edge"><title>regulation_binding_id&#45;&#45;REGULATION</title>
<path fill="none" stroke="black" d="M668.646,-32.4328C641.531,-45.4403 600.762,-64.9985 574.426,-77.6327"/>
</g>
</g>
</svg>
